Bitcount-VariationPixelsNoOverlap.ufo
<glyph name="Instance@Bold_Circle" format="1">
  <advance width="100"/>
  <outline>
    <contour>
      <point x="50" y="130" type="curve"/>
      <point x="95" y="130"/>
      <point x="130" y="95"/>
      <point x="130" y="50" type="curve"/>
      <point x="130" y="5"/>
      <point x="95" y="-30"/>
      <point x="50" y="-30" type="curve"/>
      <point x="5" y="-30"/>
      <point x="-30" y="5"/>
      <point x="-30" y="50" type="curve"/>
      <point x="-30" y="95"/>
      <point x="5" y="130"/>
    </contour>
  </outline>
</glyph>
<glyph name="Instance@Bold_Line_Circle" format="1">
  <advance width="100"/>
  <outline>
    <contour>
      <point x="50" y="114" type="curve"/>
      <point x="14" y="114"/>
      <point x="-14" y="86"/>
      <point x="-14" y="50" type="curve"/>
      <point x="-14" y="14"/>
      <point x="14" y="-14"/>
      <point x="50" y="-14" type="curve"/>
      <point x="86" y="-14"/>
      <point x="114" y="14"/>
      <point x="114" y="50" type="curve"/>
      <point x="114" y="86"/>
      <point x="86" y="114"/>
    </contour>
    <contour>
      <point x="50" y="130" type="curve"/>
      <point x="95" y="130"/>
      <point x="130" y="95"/>
      <point x="130" y="50" type="curve"/>
      <point x="130" y="5"/>
      <point x="95" y="-30"/>
      <point x="50" y="-30" type="curve"/>
      <point x="5" y="-30"/>
      <point x="-30" y="5"/>
      <point x="-30" y="50" type="curve"/>
      <point x="-30" y="95"/>
      <point x="5" y="130"/>
    </contour>
  </outline>
</glyph>
<glyph name="Instance@Bold_Line_Square" format="1">
  <advance width="100"/>
  <outline>
    <contour>
      <point x="-30" y="-30" type="line"/>
      <point x="-30" y="130" type="line"/>
      <point x="130" y="130" type="line"/>
      <point x="130" y="-30" type="line"/>
    </contour>
    <contour>
      <point x="-14" y="114" type="line"/>
      <point x="-14" y="-14" type="line"/>
      <point x="114" y="-14" type="line"/>
      <point x="114" y="114" type="line"/>
    </contour>
  </outline>
</glyph>
<glyph name="Instance@Bold_Open_Circle" format="1">
  <advance width="100"/>
  <outline>
    <contour>
      <point x="70" y="130" type="line"/>
      <point x="104" y="130"/>
      <point x="130" y="104"/>
      <point x="130" y="70" type="curve"/>
      <point x="70" y="70" type="line"/>
    </contour>
    <contour>
      <point x="30" y="130" type="curve"/>
      <point x="30" y="70" type="line"/>
      <point x="-30" y="70" type="line"/>
      <point x="-30" y="104"/>
      <point x="-4" y="130"/>
    </contour>
    <contour>
      <point x="30" y="30" type="line"/>
      <point x="30" y="-30" type="line"/>
      <point x="-4" y="-30"/>
      <point x="-30" y="-4"/>
      <point x="-30" y="30" type="curve"/>
    </contour>
    <contour>
      <point x="130" y="30" type="line"/>
      <point x="130" y="-4"/>
      <point x="104" y="-30"/>
      <point x="70" y="-30" type="curve"/>
      <point x="70" y="30" type="line"/>
    </contour>
  </outline>
</glyph>
<glyph name="Instance@Bold_Open_Line_Circle" format="1">
  <advance width="100"/>
  <outline>
    <contour>
      <point x="62" y="124" type="line"/>
      <point x="97" y="124"/>
      <point x="124" y="97"/>
      <point x="124" y="62" type="curve"/>
      <point x="101" y="62" type="line"/>
      <point x="101" y="84"/>
      <point x="84" y="101"/>
      <point x="62" y="101" type="curve"/>
    </contour>
    <contour>
      <point x="38" y="101" type="line"/>
      <point x="16" y="101"/>
      <point x="-1" y="84"/>
      <point x="-1" y="62" type="curve"/>
      <point x="-24" y="62" type="line"/>
      <point x="-24" y="97"/>
      <point x="3" y="124"/>
      <point x="38" y="124" type="curve"/>
    </contour>
    <contour>
      <point x="38" y="-1" type="curve"/>
      <point x="38" y="-24" type="line"/>
      <point x="3" y="-24"/>
      <point x="-24" y="3"/>
      <point x="-24" y="38" type="curve"/>
      <point x="-1" y="38" type="line"/>
      <point x="-1" y="16"/>
      <point x="16" y="-1"/>
    </contour>
    <contour>
      <point x="124" y="38" type="line"/>
      <point x="124" y="3"/>
      <point x="97" y="-24"/>
      <point x="62" y="-24" type="curve"/>
      <point x="62" y="-1" type="line"/>
      <point x="84" y="-1"/>
      <point x="101" y="16"/>
      <point x="101" y="38" type="curve"/>
    </contour>
  </outline>
</glyph>
<glyph name="Instance@Bold_Open_Line_Square" format="1">
  <advance width="100"/>
  <outline>
    <contour>
      <point x="130" y="130" type="line"/>
      <point x="130" y="66" type="line"/>
      <point x="107" y="66" type="line"/>
      <point x="107" y="107" type="line"/>
      <point x="66" y="107" type="line"/>
      <point x="66" y="130" type="line"/>
    </contour>
    <contour>
      <point x="-7" y="107" type="line"/>
      <point x="-7" y="66" type="line"/>
      <point x="-30" y="66" type="line"/>
      <point x="-30" y="130" type="line"/>
      <point x="34" y="130" type="line"/>
      <point x="34" y="107" type="line"/>
    </contour>
    <contour>
      <point x="34" y="-7" type="line"/>
      <point x="34" y="-30" type="line"/>
      <point x="-30" y="-30" type="line"/>
      <point x="-30" y="34" type="line"/>
      <point x="-7" y="34" type="line"/>
      <point x="-7" y="-7" type="line"/>
    </contour>
    <contour>
      <point x="130" y="34" type="line"/>
      <point x="130" y="-30" type="line"/>
      <point x="66" y="-30" type="line"/>
      <point x="66" y="-7" type="line"/>
      <point x="107" y="-7" type="line"/>
      <point x="107" y="34" type="line"/>
    </contour>
  </outline>
</glyph>
<glyph name="Instance@Book_Open_Circle" format="1">
  <advance width="100"/>
  <outline>
    <contour>
      <point x="60" y="90" type="line"/>
      <point x="77" y="90"/>
      <point x="90" y="77"/>
      <point x="90" y="60" type="curve"/>
      <point x="60" y="60" type="line"/>
    </contour>
    <contour>
      <point x="40" y="90" type="curve"/>
      <point x="40" y="60" type="line"/>
      <point x="10" y="60" type="line"/>
      <point x="10" y="77"/>
      <point x="23" y="90"/>
    </contour>
    <contour>
      <point x="40" y="40" type="line"/>
      <point x="40" y="10" type="line"/>
      <point x="23" y="10"/>
      <point x="10" y="23"/>
      <point x="10" y="40" type="curve"/>
    </contour>
    <contour>
      <point x="90" y="40" type="line"/>
      <point x="90" y="23"/>
      <point x="77" y="10"/>
      <point x="60" y="10" type="curve"/>
      <point x="60" y="40" type="line"/>
    </contour>
  </outline>
</glyph>
<glyph name="Instance@Book_Open_Line_Circle" format="1">
  <advance width="100"/>
  <outline>
    <contour>
      <point x="60" y="90" type="line"/>
      <point x="77" y="90"/>
      <point x="90" y="77"/>
      <point x="90" y="60" type="curve"/>
      <point x="74" y="60" type="line"/>
      <point x="74" y="68"/>
      <point x="68" y="74"/>
      <point x="60" y="74" type="curve"/>
    </contour>
    <contour>
      <point x="40" y="74" type="line"/>
      <point x="32" y="74"/>
      <point x="26" y="68"/>
      <point x="26" y="60" type="curve"/>
      <point x="10" y="60" type="line"/>
      <point x="10" y="77"/>
      <point x="23" y="90"/>
      <point x="40" y="90" type="curve"/>
    </contour>
    <contour>
      <point x="40" y="26" type="curve"/>
      <point x="40" y="10" type="line"/>
      <point x="23" y="10"/>
      <point x="10" y="23"/>
      <point x="10" y="40" type="curve"/>
      <point x="26" y="40" type="line"/>
      <point x="26" y="32"/>
      <point x="32" y="26"/>
    </contour>
    <contour>
      <point x="90" y="40" type="line"/>
      <point x="90" y="23"/>
      <point x="77" y="10"/>
      <point x="60" y="10" type="curve"/>
      <point x="60" y="26" type="line"/>
      <point x="68" y="26"/>
      <point x="74" y="32"/>
      <point x="74" y="40" type="curve"/>
    </contour>
  </outline>
</glyph>
<glyph name="Instance@Regular_Circle" format="1">
  <advance width="100"/>
  <outline>
    <contour>
      <point x="50" y="100" type="curve"/>
      <point x="78" y="100"/>
      <point x="100" y="78"/>
      <point x="100" y="50" type="curve"/>
      <point x="100" y="22"/>
      <point x="78" y="0"/>
      <point x="50" y="0" type="curve"/>
      <point x="22" y="0"/>
      <point x="0" y="22"/>
      <point x="0" y="50" type="curve"/>
      <point x="0" y="78"/>
      <point x="22" y="100"/>
    </contour>
  </outline>
</glyph>
<glyph name="Instance@Regular_Open_Circle" format="1">
  <advance width="100"/>
  <outline>
    <contour>
      <point x="62" y="100" type="line"/>
      <point x="83" y="100"/>
      <point x="100" y="83"/>
      <point x="100" y="62" type="curve"/>
      <point x="62" y="62" type="line"/>
    </contour>
    <contour>
      <point x="38" y="100" type="curve"/>
      <point x="38" y="62" type="line"/>
      <point x="0" y="62" type="line"/>
      <point x="0" y="83"/>
      <point x="17" y="100"/>
    </contour>
    <contour>
      <point x="38" y="38" type="line"/>
      <point x="38" y="0" type="line"/>
      <point x="17" y="0"/>
      <point x="0" y="17"/>
      <point x="0" y="38" type="curve"/>
    </contour>
    <contour>
      <point x="100" y="38" type="line"/>
      <point x="100" y="17"/>
      <point x="83" y="0"/>
      <point x="62" y="0" type="curve"/>
      <point x="62" y="38" type="line"/>
    </contour>
  </outline>
</glyph>
<glyph name="Instance@Regular_Open_Line_Circle" format="1">
  <advance width="100"/>
  <outline>
    <contour>
      <point x="63" y="100" type="line"/>
      <point x="84" y="100"/>
      <point x="100" y="84"/>
      <point x="100" y="63" type="curve"/>
      <point x="84" y="63" type="line"/>
      <point x="84" y="75"/>
      <point x="75" y="84"/>
      <point x="63" y="84" type="curve"/>
    </contour>
    <contour>
      <point x="38" y="84" type="line"/>
      <point x="25" y="84"/>
      <point x="16" y="76"/>
      <point x="16" y="63" type="curve"/>
      <point x="0" y="63" type="line"/>
      <point x="0" y="84"/>
      <point x="17" y="100"/>
      <point x="38" y="100" type="curve"/>
    </contour>
    <contour>
      <point x="38" y="16" type="curve"/>
      <point x="38" y="0" type="line"/>
      <point x="17" y="0"/>
      <point x="0" y="17"/>
      <point x="0" y="38" type="curve"/>
      <point x="16" y="38" type="line"/>
      <point x="16" y="25"/>
      <point x="25" y="16"/>
    </contour>
    <contour>
      <point x="100" y="38" type="line"/>
      <point x="100" y="17"/>
      <point x="84" y="0"/>
      <point x="63" y="0" type="curve"/>
      <point x="63" y="16" type="line"/>
      <point x="75" y="16"/>
      <point x="84" y="26"/>
      <point x="84" y="38" type="curve"/>
    </contour>
  </outline>
</glyph>
<glyph name="Instance@Regular_Open_Square" format="1">
  <advance width="100"/>
  <outline>
    <contour>
      <point x="100" y="100" type="line"/>
      <point x="100" y="63" type="line"/>
      <point x="63" y="63" type="line"/>
      <point x="63" y="100" type="line"/>
    </contour>
    <contour>
      <point x="38" y="100" type="line"/>
      <point x="38" y="63" type="line"/>
      <point x="0" y="63" type="line"/>
      <point x="0" y="100" type="line"/>
    </contour>
    <contour>
      <point x="38" y="38" type="line"/>
      <point x="38" y="0" type="line"/>
      <point x="0" y="0" type="line"/>
      <point x="0" y="38" type="line"/>
    </contour>
    <contour>
      <point x="100" y="38" type="line"/>
      <point x="100" y="0" type="line"/>
      <point x="63" y="0" type="line"/>
      <point x="63" y="38" type="line"/>
    </contour>
  </outline>
</glyph>
<glyph name="Instance@Semibold_Line_Circle" format="1">
  <advance width="100"/>
  <outline>
    <contour>
      <point x="50" y="92" type="curve"/>
      <point x="26" y="92"/>
      <point x="8" y="74"/>
      <point x="8" y="50" type="curve"/>
      <point x="8" y="26"/>
      <point x="26" y="8"/>
      <point x="50" y="8" type="curve"/>
      <point x="74" y="8"/>
      <point x="92" y="26"/>
      <point x="92" y="50" type="curve"/>
      <point x="92" y="74"/>
      <point x="74" y="92"/>
    </contour>
    <contour>
      <point x="50" y="108" type="curve"/>
      <point x="83" y="108"/>
      <point x="108" y="83"/>
      <point x="108" y="50" type="curve"/>
      <point x="108" y="17"/>
      <point x="83" y="-8"/>
      <point x="50" y="-8" type="curve"/>
      <point x="17" y="-8"/>
      <point x="-8" y="17"/>
      <point x="-8" y="50" type="curve"/>
      <point x="-8" y="83"/>
      <point x="17" y="108"/>
    </contour>
  </outline>
</glyph>
<glyph name="Instance@Semibold_Open_Circle" format="1">
  <advance width="100"/>
  <outline>
    <contour>
      <point x="65" y="108" type="line"/>
      <point x="89" y="108"/>
      <point x="108" y="89"/>
      <point x="108" y="65" type="curve"/>
      <point x="65" y="65" type="line"/>
    </contour>
    <contour>
      <point x="35" y="108" type="curve"/>
      <point x="35" y="65" type="line"/>
      <point x="-8" y="65" type="line"/>
      <point x="-8" y="89"/>
      <point x="11" y="108"/>
    </contour>
    <contour>
      <point x="35" y="35" type="line"/>
      <point x="35" y="-8" type="line"/>
      <point x="11" y="-8"/>
      <point x="-8" y="11"/>
      <point x="-8" y="35" type="curve"/>
    </contour>
    <contour>
      <point x="108" y="35" type="line"/>
      <point x="108" y="11"/>
      <point x="89" y="-8"/>
      <point x="65" y="-8" type="curve"/>
      <point x="65" y="35" type="line"/>
    </contour>
  </outline>
</glyph>
<glyph name="Instance@Semibold_Open_Line_Circle" format="1">
  <advance width="100"/>
  <outline>
    <contour>
      <point x="65" y="108" type="line"/>
      <point x="89" y="108"/>
      <point x="108" y="89"/>
      <point x="108" y="65" type="curve"/>
      <point x="92" y="65" type="line"/>
      <point x="92" y="80"/>
      <point x="80" y="92"/>
      <point x="65" y="92" type="curve"/>
    </contour>
    <contour>
      <point x="35" y="92" type="line"/>
      <point x="20" y="92"/>
      <point x="8" y="80"/>
      <point x="8" y="65" type="curve"/>
      <point x="-8" y="65" type="line"/>
      <point x="-8" y="89"/>
      <point x="11" y="108"/>
      <point x="35" y="108" type="curve"/>
    </contour>
    <contour>
      <point x="35" y="8" type="curve"/>
      <point x="35" y="-8" type="line"/>
      <point x="11" y="-8"/>
      <point x="-8" y="11"/>
      <point x="-8" y="35" type="curve"/>
      <point x="8" y="35" type="line"/>
      <point x="8" y="20"/>
      <point x="20" y="8"/>
    </contour>
    <contour>
      <point x="108" y="35" type="line"/>
      <point x="108" y="11"/>
      <point x="89" y="-8"/>
      <point x="65" y="-8" type="curve"/>
      <point x="65" y="8" type="line"/>
      <point x="80" y="8"/>
      <point x="92" y="20"/>
      <point x="92" y="35" type="curve"/>
    </contour>
  </outline>
</glyph>
<glyph name="InstanceItalic@Bold_Line_Square" format="1">
  <advance width="100"/>
  <outline>
    <contour>
      <point x="-41" y="-30" type="line"/>
      <point x="-19" y="130" type="line"/>
      <point x="141" y="130" type="line"/>
      <point x="119" y="-30" type="line"/>
    </contour>
    <contour>
      <point x="-5" y="114" type="line"/>
      <point x="-23" y="-14" type="line"/>
      <point x="105" y="-14" type="line"/>
      <point x="123" y="114" type="line"/>
    </contour>
  </outline>
</glyph>
<glyph name="InstanceItalic@Bold_Open_Circle" format="1">
  <advance width="100"/>
  <outline>
    <contour>
      <point x="81" y="130" type="line"/>
      <point x="115" y="130"/>
      <point x="137" y="104"/>
      <point x="133" y="70" type="curve"/>
      <point x="73" y="70" type="line"/>
    </contour>
    <contour>
      <point x="41" y="130" type="curve"/>
      <point x="33" y="70" type="line"/>
      <point x="-27" y="70" type="line"/>
      <point x="-23" y="104"/>
      <point x="8" y="130"/>
    </contour>
    <contour>
      <point x="27" y="30" type="line"/>
      <point x="19" y="-30" type="line"/>
      <point x="-15" y="-30"/>
      <point x="-37" y="-4"/>
      <point x="-33" y="30" type="curve"/>
    </contour>
    <contour>
      <point x="127" y="30" type="line"/>
      <point x="123" y="-4"/>
      <point x="93" y="-30"/>
      <point x="59" y="-30" type="curve"/>
      <point x="67" y="30" type="line"/>
    </contour>
  </outline>
</glyph>
<glyph name="InstanceItalic@Bold_Open_Line_Circle" format="1">
  <advance width="100"/>
  <outline>
    <contour>
      <point x="71" y="124" type="line"/>
      <point x="106" y="124"/>
      <point x="130" y="97"/>
      <point x="126" y="62" type="curve"/>
      <point x="103" y="62" type="line"/>
      <point x="106" y="83"/>
      <point x="91" y="101"/>
      <point x="68" y="101" type="curve"/>
    </contour>
    <contour>
      <point x="45" y="101" type="line"/>
      <point x="24" y="101"/>
      <point x="5" y="83"/>
      <point x="1" y="62" type="curve"/>
      <point x="-22" y="62" type="line"/>
      <point x="-18" y="97"/>
      <point x="13" y="124"/>
      <point x="48" y="124" type="curve"/>
    </contour>
    <contour>
      <point x="31" y="-1" type="curve"/>
      <point x="28" y="-24" type="line"/>
      <point x="-7" y="-24"/>
      <point x="-30" y="3"/>
      <point x="-26" y="38" type="curve"/>
      <point x="-3" y="38" type="line"/>
      <point x="-6" y="17"/>
      <point x="8" y="-1"/>
    </contour>
    <contour>
      <point x="122" y="38" type="line"/>
      <point x="118" y="3"/>
      <point x="86" y="-24"/>
      <point x="51" y="-24" type="curve"/>
      <point x="54" y="-1" type="line"/>
      <point x="75" y="-1"/>
      <point x="95" y="17"/>
      <point x="99" y="38" type="curve"/>
    </contour>
  </outline>
</glyph>
<glyph name="InstanceItalic@Bold_Open_Line_Square" format="1">
  <advance width="100"/>
  <outline>
    <contour>
      <point x="141" y="130" type="line"/>
      <point x="132" y="66" type="line"/>
      <point x="109" y="66" type="line"/>
      <point x="114" y="107" type="line"/>
      <point x="74" y="107" type="line"/>
      <point x="77" y="130" type="line"/>
    </contour>
    <contour>
      <point x="1" y="107" type="line"/>
      <point x="-4" y="66" type="line"/>
      <point x="-28" y="66" type="line"/>
      <point x="-19" y="130" type="line"/>
      <point x="45" y="130" type="line"/>
      <point x="42" y="107" type="line"/>
    </contour>
    <contour>
      <point x="26" y="-7" type="line"/>
      <point x="23" y="-30" type="line"/>
      <point x="-41" y="-30" type="line"/>
      <point x="-32" y="34" type="line"/>
      <point x="-9" y="34" type="line"/>
      <point x="-14" y="-7" type="line"/>
    </contour>
    <contour>
      <point x="128" y="34" type="line"/>
      <point x="119" y="-30" type="line"/>
      <point x="55" y="-30" type="line"/>
      <point x="58" y="-7" type="line"/>
      <point x="99" y="-7" type="line"/>
      <point x="104" y="34" type="line"/>
    </contour>
  </outline>
</glyph>
<glyph name="InstanceItalic@Bold_Open_Square" format="1">
  <advance width="100"/>
  <outline>
    <contour>
      <point x="141" y="130" type="line"/>
      <point x="133" y="70" type="line"/>
      <point x="73" y="70" type="line"/>
      <point x="81" y="130" type="line"/>
    </contour>
    <contour>
      <point x="41" y="130" type="line"/>
      <point x="33" y="70" type="line"/>
      <point x="-27" y="70" type="line"/>
      <point x="-19" y="130" type="line"/>
    </contour>
    <contour>
      <point x="27" y="30" type="line"/>
      <point x="19" y="-30" type="line"/>
      <point x="-41" y="-30" type="line"/>
      <point x="-33" y="30" type="line"/>
    </contour>
    <contour>
      <point x="127" y="30" type="line"/>
      <point x="119" y="-30" type="line"/>
      <point x="59" y="-30" type="line"/>
      <point x="67" y="30" type="line"/>
    </contour>
  </outline>
</glyph>
<glyph name="InstanceItalic@Bold_Plus" format="1">
  <advance width="100"/>
  <outline>
    <contour>
      <point x="76" y="20" type="line"/>
      <point x="69" y="-30" type="line"/>
      <point x="9" y="-30" type="line"/>
      <point x="16" y="20" type="line"/>
      <point x="-34" y="20" type="line"/>
      <point x="-26" y="80" type="line"/>
      <point x="24" y="80" type="line"/>
      <point x="31" y="130" type="line"/>
      <point x="91" y="130" type="line"/>
      <point x="84" y="80" type="line"/>
      <point x="134" y="80" type="line"/>
      <point x="126" y="20" type="line"/>
    </contour>
  </outline>
</glyph>
<glyph name="InstanceItalic@Bold_Square" format="1">
  <advance width="100"/>
  <outline>
    <contour>
      <point x="141" y="130" type="line"/>
      <point x="119" y="-30" type="line"/>
      <point x="-41" y="-30" type="line"/>
      <point x="-19" y="130" type="line"/>
    </contour>
  </outline>
</glyph>
<glyph name="InstanceItalic@Book_Circle" format="1">
  <advance width="100"/>
  <outline>
    <contour>
      <point x="50" y="90" type="curve"/>
      <point x="73" y="90"/>
      <point x="90" y="73"/>
      <point x="90" y="50" type="curve"/>
      <point x="90" y="27"/>
      <point x="73" y="10"/>
      <point x="50" y="10" type="curve"/>
      <point x="27" y="10"/>
      <point x="10" y="27"/>
      <point x="10" y="50" type="curve"/>
      <point x="10" y="73"/>
      <point x="27" y="90"/>
    </contour>
  </outline>
</glyph>
<glyph name="InstanceItalic@Book_Line_Circle" format="1">
  <advance width="100"/>
  <outline>
    <contour>
      <point x="50" y="74" type="curve"/>
      <point x="36" y="74"/>
      <point x="26" y="64"/>
      <point x="26" y="50" type="curve"/>
      <point x="26" y="36"/>
      <point x="36" y="26"/>
      <point x="50" y="26" type="curve"/>
      <point x="64" y="26"/>
      <point x="74" y="36"/>
      <point x="74" y="50" type="curve"/>
      <point x="74" y="64"/>
      <point x="64" y="74"/>
    </contour>
    <contour>
      <point x="50" y="90" type="curve"/>
      <point x="73" y="90"/>
      <point x="90" y="73"/>
      <point x="90" y="50" type="curve"/>
      <point x="90" y="27"/>
      <point x="73" y="10"/>
      <point x="50" y="10" type="curve"/>
      <point x="27" y="10"/>
      <point x="10" y="27"/>
      <point x="10" y="50" type="curve"/>
      <point x="10" y="73"/>
      <point x="27" y="90"/>
    </contour>
  </outline>
</glyph>
<glyph name="InstanceItalic@Book_Line_Square" format="1">
  <advance width="100"/>
  <outline>
    <contour>
      <point x="4" y="10" type="line"/>
      <point x="16" y="90" type="line"/>
      <point x="96" y="90" type="line"/>
      <point x="84" y="10" type="line"/>
    </contour>
    <contour>
      <point x="30" y="74" type="line"/>
      <point x="23" y="26" type="line"/>
      <point x="70" y="26" type="line"/>
      <point x="77" y="74" type="line"/>
    </contour>
  </outline>
</glyph>
<glyph name="InstanceItalic@Book_Open_Circle" format="1">
  <advance width="100"/>
  <outline>
    <contour>
      <point x="66" y="90" type="line"/>
      <point x="82" y="90"/>
      <point x="94" y="77"/>
      <point x="91" y="60" type="curve"/>
      <point x="61" y="60" type="line"/>
    </contour>
    <contour>
      <point x="46" y="90" type="curve"/>
      <point x="41" y="60" type="line"/>
      <point x="11" y="60" type="line"/>
      <point x="14" y="77"/>
      <point x="29" y="90"/>
    </contour>
    <contour>
      <point x="39" y="40" type="line"/>
      <point x="34" y="10" type="line"/>
      <point x="18" y="10"/>
      <point x="6" y="23"/>
      <point x="9" y="40" type="curve"/>
    </contour>
    <contour>
      <point x="89" y="40" type="line"/>
      <point x="86" y="23"/>
      <point x="71" y="10"/>
      <point x="54" y="10" type="curve"/>
      <point x="59" y="40" type="line"/>
    </contour>
  </outline>
</glyph>
<glyph name="InstanceItalic@Book_Open_Line_Square" format="1">
  <advance width="100"/>
  <outline>
    <contour>
      <point x="96" y="90" type="line"/>
      <point x="91" y="60" type="line"/>
      <point x="75" y="60" type="line"/>
      <point x="77" y="74" type="line"/>
      <point x="63" y="74" type="line"/>
      <point x="66" y="90" type="line"/>
    </contour>
    <contour>
      <point x="29" y="74" type="line"/>
      <point x="27" y="60" type="line"/>
      <point x="11" y="60" type="line"/>
      <point x="16" y="90" type="line"/>
      <point x="46" y="90" type="line"/>
      <point x="43" y="74" type="line"/>
    </contour>
    <contour>
      <point x="37" y="26" type="line"/>
      <point x="34" y="10" type="line"/>
      <point x="4" y="10" type="line"/>
      <point x="9" y="40" type="line"/>
      <point x="25" y="40" type="line"/>
      <point x="23" y="26" type="line"/>
    </contour>
    <contour>
      <point x="89" y="40" type="line"/>
      <point x="84" y="10" type="line"/>
      <point x="54" y="10" type="line"/>
      <point x="57" y="26" type="line"/>
      <point x="71" y="26" type="line"/>
      <point x="73" y="40" type="line"/>
    </contour>
  </outline>
</glyph>
<glyph name="InstanceItalic@Book_Open_Square" format="1">
  <advance width="100"/>
  <outline>
    <contour>
      <point x="96" y="90" type="line"/>
      <point x="91" y="60" type="line"/>
      <point x="61" y="60" type="line"/>
      <point x="66" y="90" type="line"/>
    </contour>
    <contour>
      <point x="46" y="90" type="line"/>
      <point x="41" y="60" type="line"/>
      <point x="11" y="60" type="line"/>
      <point x="16" y="90" type="line"/>
    </contour>
    <contour>
      <point x="39" y="40" type="line"/>
      <point x="34" y="10" type="line"/>
      <point x="4" y="10" type="line"/>
      <point x="9" y="40" type="line"/>
    </contour>
    <contour>
      <point x="89" y="40" type="line"/>
      <point x="84" y="10" type="line"/>
      <point x="54" y="10" type="line"/>
      <point x="59" y="40" type="line"/>
    </contour>
  </outline>
</glyph>
<glyph name="InstanceItalic@Book_Plus" format="1">
  <advance width="100"/>
  <outline>
    <contour>
      <point x="53" y="47" type="line"/>
      <point x="48" y="10" type="line"/>
      <point x="41" y="10" type="line"/>
      <point x="46" y="47" type="line"/>
      <point x="10" y="47" type="line"/>
      <point x="10" y="53" type="line"/>
      <point x="47" y="53" type="line"/>
      <point x="52" y="90" type="line"/>
      <point x="59" y="90" type="line"/>
      <point x="54" y="53" type="line"/>
      <point x="90" y="53" type="line"/>
      <point x="90" y="47" type="line"/>
    </contour>
  </outline>
</glyph>
<glyph name="InstanceItalic@Book_Square" format="1">
  <advance width="100"/>
  <outline>
    <contour>
      <point x="96" y="90" type="line"/>
      <point x="84" y="10" type="line"/>
      <point x="4" y="10" type="line"/>
      <point x="16" y="90" type="line"/>
    </contour>
  </outline>
</glyph>
<glyph name="InstanceItalic@Regular_Line_Circle" format="1">
  <advance width="100"/>
  <outline>
    <contour>
      <point x="50" y="84" type="curve"/>
      <point x="31" y="84"/>
      <point x="16" y="69"/>
      <point x="16" y="50" type="curve"/>
      <point x="16" y="31"/>
      <point x="31" y="16"/>
      <point x="50" y="16" type="curve"/>
      <point x="69" y="16"/>
      <point x="84" y="31"/>
      <point x="84" y="50" type="curve"/>
      <point x="84" y="69"/>
      <point x="69" y="84"/>
    </contour>
    <contour>
      <point x="50" y="100" type="curve"/>
      <point x="78" y="100"/>
      <point x="100" y="78"/>
      <point x="100" y="50" type="curve"/>
      <point x="100" y="22"/>
      <point x="78" y="0"/>
      <point x="50" y="0" type="curve"/>
      <point x="22" y="0"/>
      <point x="0" y="22"/>
      <point x="0" y="50" type="curve"/>
      <point x="0" y="78"/>
      <point x="22" y="100"/>
    </contour>
  </outline>
</glyph>
<glyph name="InstanceItalic@Regular_Line_Square" format="1">
  <advance width="100"/>
  <outline>
    <contour>
      <point x="-7" y="0" type="line"/>
      <point x="7" y="100" type="line"/>
      <point x="107" y="100" type="line"/>
      <point x="93" y="0" type="line"/>
    </contour>
    <contour>
      <point x="21" y="84" type="line"/>
      <point x="11" y="16" type="line"/>
      <point x="79" y="16" type="line"/>
      <point x="89" y="84" type="line"/>
    </contour>
  </outline>
</glyph>
<glyph name="InstanceItalic@Regular_Open_Circle" format="1">
  <advance width="100"/>
  <outline>
    <contour>
      <point x="70" y="100" type="line"/>
      <point x="90" y="100"/>
      <point x="105" y="83"/>
      <point x="102" y="63" type="curve"/>
      <point x="64" y="63" type="line"/>
    </contour>
    <contour>
      <point x="45" y="100" type="curve"/>
      <point x="39" y="63" type="line"/>
      <point x="2" y="63" type="line"/>
      <point x="5" y="83"/>
      <point x="24" y="100"/>
    </contour>
    <contour>
      <point x="36" y="38" type="line"/>
      <point x="31" y="0" type="line"/>
      <point x="10" y="0"/>
      <point x="-5" y="17"/>
      <point x="-2" y="38" type="curve"/>
    </contour>
    <contour>
      <point x="98" y="38" type="line"/>
      <point x="95" y="17"/>
      <point x="76" y="0"/>
      <point x="56" y="0" type="curve"/>
      <point x="61" y="38" type="line"/>
    </contour>
  </outline>
</glyph>
<glyph name="InstanceItalic@Regular_Open_Line_Circle" format="1">
  <advance width="100"/>
  <outline>
    <contour>
      <point x="70" y="100" type="line"/>
      <point x="90" y="100"/>
      <point x="105" y="83"/>
      <point x="102" y="63" type="curve"/>
      <point x="86" y="63" type="line"/>
      <point x="87" y="75"/>
      <point x="79" y="84"/>
      <point x="67" y="84" type="curve"/>
    </contour>
    <contour>
      <point x="42" y="84" type="line"/>
      <point x="30" y="84"/>
      <point x="19" y="75"/>
      <point x="18" y="63" type="curve"/>
      <point x="2" y="63" type="line"/>
      <point x="5" y="83"/>
      <point x="24" y="100"/>
      <point x="45" y="100" type="curve"/>
    </contour>
    <contour>
      <point x="33" y="16" type="curve"/>
      <point x="31" y="0" type="line"/>
      <point x="10" y="0"/>
      <point x="-5" y="17"/>
      <point x="-2" y="38" type="curve"/>
      <point x="14" y="38" type="line"/>
      <point x="13" y="25"/>
      <point x="21" y="16"/>
    </contour>
    <contour>
      <point x="98" y="38" type="line"/>
      <point x="95" y="17"/>
      <point x="76" y="0"/>
      <point x="56" y="0" type="curve"/>
      <point x="58" y="16" type="line"/>
      <point x="70" y="16"/>
      <point x="81" y="25"/>
      <point x="82" y="38" type="curve"/>
    </contour>
  </outline>
</glyph>
<glyph name="InstanceItalic@Regular_Open_Line_Square" format="1">
  <advance width="100"/>
  <outline>
    <contour>
      <point x="107" y="100" type="line"/>
      <point x="102" y="62" type="line"/>
      <point x="86" y="62" type="line"/>
      <point x="89" y="84" type="line"/>
      <point x="67" y="84" type="line"/>
      <point x="69" y="100" type="line"/>
    </contour>
    <contour>
      <point x="21" y="84" type="line"/>
      <point x="18" y="62" type="line"/>
      <point x="2" y="62" type="line"/>
      <point x="7" y="100" type="line"/>
      <point x="45" y="100" type="line"/>
      <point x="43" y="84" type="line"/>
    </contour>
    <contour>
      <point x="33" y="16" type="line"/>
      <point x="31" y="0" type="line"/>
      <point x="-7" y="0" type="line"/>
      <point x="-2" y="38" type="line"/>
      <point x="14" y="38" type="line"/>
      <point x="11" y="16" type="line"/>
    </contour>
    <contour>
      <point x="98" y="38" type="line"/>
      <point x="93" y="0" type="line"/>
      <point x="55" y="0" type="line"/>
      <point x="57" y="16" type="line"/>
      <point x="79" y="16" type="line"/>
      <point x="82" y="38" type="line"/>
    </contour>
  </outline>
</glyph>
<glyph name="InstanceItalic@Regular_Open_Square" format="1">
  <advance width="100"/>
  <outline>
    <contour>
      <point x="107" y="100" type="line"/>
      <point x="102" y="62" type="line"/>
      <point x="64" y="62" type="line"/>
      <point x="69" y="100" type="line"/>
    </contour>
    <contour>
      <point x="45" y="100" type="line"/>
      <point x="40" y="62" type="line"/>
      <point x="2" y="62" type="line"/>
      <point x="7" y="100" type="line"/>
    </contour>
    <contour>
      <point x="36" y="38" type="line"/>
      <point x="31" y="0" type="line"/>
      <point x="-7" y="0" type="line"/>
      <point x="-2" y="38" type="line"/>
    </contour>
    <contour>
      <point x="98" y="38" type="line"/>
      <point x="93" y="0" type="line"/>
      <point x="55" y="0" type="line"/>
      <point x="60" y="38" type="line"/>
    </contour>
  </outline>
</glyph>
<glyph name="InstanceItalic@Regular_Plus" format="1">
  <advance width="100"/>
  <outline>
    <contour>
      <point x="53" y="46" type="line"/>
      <point x="47" y="0" type="line"/>
      <point x="39" y="0" type="line"/>
      <point x="45" y="46" type="line"/>
      <point x="0" y="46" type="line"/>
      <point x="0" y="54" type="line"/>
      <point x="47" y="54" type="line"/>
      <point x="53" y="100" type="line"/>
      <point x="61" y="100" type="line"/>
      <point x="55" y="54" type="line"/>
      <point x="100" y="54" type="line"/>
      <point x="100" y="46" type="line"/>
    </contour>
  </outline>
</glyph>
<glyph name="InstanceItalic@Regular_Square" format="1">
  <advance width="100"/>
  <outline>
    <contour>
      <point x="107" y="100" type="line"/>
      <point x="93" y="0" type="line"/>
      <point x="-7" y="0" type="line"/>
      <point x="7" y="100" type="line"/>
    </contour>
  </outline>
</glyph>
<glyph name="InstanceItalic@Semibold_Circle" format="1">
  <advance width="100"/>
  <outline>
    <contour>
      <point x="50" y="108" type="curve"/>
      <point x="83" y="108"/>
      <point x="108" y="83"/>
      <point x="108" y="50" type="curve"/>
      <point x="108" y="17"/>
      <point x="83" y="-8"/>
      <point x="50" y="-8" type="curve"/>
      <point x="17" y="-8"/>
      <point x="-8" y="17"/>
      <point x="-8" y="50" type="curve"/>
      <point x="-8" y="83"/>
      <point x="17" y="108"/>
    </contour>
  </outline>
</glyph>
<glyph name="InstanceItalic@Semibold_Line_Square" format="1">
  <advance width="100"/>
  <outline>
    <contour>
      <point x="-16" y="-8" type="line"/>
      <point x="0" y="108" type="line"/>
      <point x="116" y="108" type="line"/>
      <point x="100" y="-8" type="line"/>
    </contour>
    <contour>
      <point x="14" y="92" type="line"/>
      <point x="2" y="8" type="line"/>
      <point x="86" y="8" type="line"/>
      <point x="98" y="92" type="line"/>
    </contour>
  </outline>
</glyph>
<glyph name="InstanceItalic@Semibold_Open_Circle" format="1">
  <advance width="100"/>
  <outline>
    <contour>
      <point x="73" y="108" type="line"/>
      <point x="97" y="108"/>
      <point x="114" y="89"/>
      <point x="110" y="65" type="curve"/>
      <point x="67" y="65" type="line"/>
    </contour>
    <contour>
      <point x="43" y="108" type="curve"/>
      <point x="37" y="65" type="line"/>
      <point x="-6" y="65" type="line"/>
      <point x="-3" y="89"/>
      <point x="18" y="108"/>
    </contour>
    <contour>
      <point x="33" y="35" type="line"/>
      <point x="27" y="-8" type="line"/>
      <point x="3" y="-8"/>
      <point x="-14" y="11"/>
      <point x="-10" y="35" type="curve"/>
    </contour>
    <contour>
      <point x="106" y="35" type="line"/>
      <point x="103" y="11"/>
      <point x="82" y="-8"/>
      <point x="57" y="-8" type="curve"/>
      <point x="63" y="35" type="line"/>
    </contour>
  </outline>
</glyph>
<glyph name="InstanceItalic@Semibold_Open_Line_Circle" format="1">
  <advance width="100"/>
  <outline>
    <contour>
      <point x="73" y="108" type="line"/>
      <point x="97" y="108"/>
      <point x="114" y="89"/>
      <point x="110" y="65" type="curve"/>
      <point x="94" y="65" type="line"/>
      <point x="97" y="80"/>
      <point x="86" y="92"/>
      <point x="70" y="92" type="curve"/>
    </contour>
    <contour>
      <point x="41" y="92" type="line"/>
      <point x="26" y="92"/>
      <point x="13" y="80"/>
      <point x="10" y="65" type="curve"/>
      <point x="-6" y="65" type="line"/>
      <point x="-3" y="89"/>
      <point x="19" y="108"/>
      <point x="44" y="108" type="curve"/>
    </contour>
    <contour>
      <point x="30" y="8" type="curve"/>
      <point x="27" y="-8" type="line"/>
      <point x="3" y="-8"/>
      <point x="-14" y="11"/>
      <point x="-10" y="35" type="curve"/>
      <point x="6" y="35" type="line"/>
      <point x="3" y="20"/>
      <point x="14" y="8"/>
    </contour>
    <contour>
      <point x="106" y="35" type="line"/>
      <point x="103" y="11"/>
      <point x="81" y="-8"/>
      <point x="56" y="-8" type="curve"/>
      <point x="59" y="8" type="line"/>
      <point x="74" y="8"/>
      <point x="87" y="20"/>
      <point x="90" y="35" type="curve"/>
    </contour>
  </outline>
</glyph>
<glyph name="InstanceItalic@Semibold_Open_Line_Square" format="1">
  <advance width="100"/>
  <outline>
    <contour>
      <point x="116" y="108" type="line"/>
      <point x="110" y="65" type="line"/>
      <point x="94" y="65" type="line"/>
      <point x="98" y="92" type="line"/>
      <point x="70" y="92" type="line"/>
      <point x="73" y="108" type="line"/>
    </contour>
    <contour>
      <point x="14" y="92" type="line"/>
      <point x="10" y="65" type="line"/>
      <point x="-6" y="65" type="line"/>
      <point x="0" y="108" type="line"/>
      <point x="44" y="108" type="line"/>
      <point x="41" y="92" type="line"/>
    </contour>
    <contour>
      <point x="30" y="8" type="line"/>
      <point x="27" y="-8" type="line"/>
      <point x="-16" y="-8" type="line"/>
      <point x="-10" y="35" type="line"/>
      <point x="6" y="35" type="line"/>
      <point x="2" y="8" type="line"/>
    </contour>
    <contour>
      <point x="106" y="35" type="line"/>
      <point x="100" y="-8" type="line"/>
      <point x="56" y="-8" type="line"/>
      <point x="59" y="8" type="line"/>
      <point x="86" y="8" type="line"/>
      <point x="90" y="35" type="line"/>
    </contour>
  </outline>
</glyph>
<glyph name="InstanceItalic@Semibold_Plus" format="1">
  <advance width="100"/>
  <outline>
    <contour>
      <point x="62" y="37" type="line"/>
      <point x="55" y="-8" type="line"/>
      <point x="28" y="-8" type="line"/>
      <point x="35" y="37" type="line"/>
      <point x="-10" y="37" type="line"/>
      <point x="-6" y="63" type="line"/>
      <point x="38" y="63" type="line"/>
      <point x="45" y="108" type="line"/>
      <point x="72" y="108" type="line"/>
      <point x="65" y="63" type="line"/>
      <point x="110" y="63" type="line"/>
      <point x="106" y="37" type="line"/>
    </contour>
  </outline>
</glyph>
<glyph name="InstanceItalic@Semibold_Square" format="1">
  <advance width="100"/>
  <outline>
    <contour>
      <point x="116" y="108" type="line"/>
      <point x="100" y="-8" type="line"/>
      <point x="-16" y="-8" type="line"/>
      <point x="0" y="108" type="line"/>
    </contour>
  </outline>
</glyph>
<glyph name="NOTInstance@Black_Line_Circle" format="1">
  <advance width="100"/>
  <outline>
    <contour>
      <point x="50" y="134" type="curve"/>
      <point x="3" y="134"/>
      <point x="-34" y="97"/>
      <point x="-34" y="50" type="curve"/>
      <point x="-34" y="3"/>
      <point x="3" y="-34"/>
      <point x="50" y="-34" type="curve"/>
      <point x="97" y="-34"/>
      <point x="134" y="3"/>
      <point x="134" y="50" type="curve"/>
      <point x="134" y="97"/>
      <point x="97" y="134"/>
    </contour>
    <contour>
      <point x="50" y="150" type="curve"/>
      <point x="106" y="150"/>
      <point x="150" y="106"/>
      <point x="150" y="50" type="curve"/>
      <point x="150" y="-6"/>
      <point x="106" y="-50"/>
      <point x="50" y="-50" type="curve"/>
      <point x="-6" y="-50"/>
      <point x="-50" y="-6"/>
      <point x="-50" y="50" type="curve"/>
      <point x="-50" y="106"/>
      <point x="-6" y="150"/>
    </contour>
  </outline>
</glyph>
<glyph name="NOTInstance@Black_Line_Square" format="1">
  <advance width="100"/>
  <outline>
    <contour>
      <point x="-45" y="-45" type="line"/>
      <point x="-45" y="145" type="line"/>
      <point x="145" y="145" type="line"/>
      <point x="145" y="-45" type="line"/>
    </contour>
    <contour>
      <point x="-6" y="106" type="line"/>
      <point x="-6" y="-6" type="line"/>
      <point x="106" y="-6" type="line"/>
      <point x="106" y="106" type="line"/>
    </contour>
  </outline>
</glyph>
<glyph name="NOTInstance@Black_Open_Circle" format="1">
  <advance width="100"/>
  <outline>
    <contour>
      <point x="75" y="150" type="line"/>
      <point x="117" y="150"/>
      <point x="150" y="117"/>
      <point x="150" y="75" type="curve"/>
      <point x="75" y="75" type="line"/>
    </contour>
    <contour>
      <point x="25" y="150" type="curve"/>
      <point x="25" y="75" type="line"/>
      <point x="-50" y="75" type="line"/>
      <point x="-50" y="117"/>
      <point x="-17" y="150"/>
    </contour>
    <contour>
      <point x="25" y="25" type="line"/>
      <point x="25" y="-50" type="line"/>
      <point x="-17" y="-50"/>
      <point x="-50" y="-17"/>
      <point x="-50" y="25" type="curve"/>
    </contour>
    <contour>
      <point x="150" y="25" type="line"/>
      <point x="150" y="-17"/>
      <point x="117" y="-50"/>
      <point x="75" y="-50" type="curve"/>
      <point x="75" y="25" type="line"/>
    </contour>
  </outline>
</glyph>
<glyph name="NOTInstance@Black_Open_Line_Circle" format="1">
  <advance width="100"/>
  <outline>
    <contour>
      <point x="70" y="150" type="line"/>
      <point x="115" y="150"/>
      <point x="150" y="115"/>
      <point x="150" y="70" type="curve"/>
      <point x="117" y="70" type="line"/>
      <point x="117" y="96"/>
      <point x="96" y="117"/>
      <point x="70" y="117" type="curve"/>
    </contour>
    <contour>
      <point x="30" y="117" type="line"/>
      <point x="4" y="117"/>
      <point x="-17" y="96"/>
      <point x="-17" y="70" type="curve"/>
      <point x="-50" y="70" type="line"/>
      <point x="-50" y="115"/>
      <point x="-15" y="150"/>
      <point x="30" y="150" type="curve"/>
    </contour>
    <contour>
      <point x="30" y="-17" type="curve"/>
      <point x="30" y="-50" type="line"/>
      <point x="-15" y="-50"/>
      <point x="-50" y="-15"/>
      <point x="-50" y="30" type="curve"/>
      <point x="-17" y="30" type="line"/>
      <point x="-17" y="4"/>
      <point x="4" y="-17"/>
    </contour>
    <contour>
      <point x="150" y="30" type="line"/>
      <point x="150" y="-15"/>
      <point x="115" y="-50"/>
      <point x="70" y="-50" type="curve"/>
      <point x="70" y="-17" type="line"/>
      <point x="96" y="-17"/>
      <point x="117" y="4"/>
      <point x="117" y="30" type="curve"/>
    </contour>
  </outline>
</glyph>
<glyph name="NOTInstance@Black_Open_Line_Square" format="1">
  <advance width="100"/>
  <outline>
    <contour>
      <point x="171" y="171" type="line"/>
      <point x="171" y="71" type="line"/>
      <point x="129" y="71" type="line"/>
      <point x="129" y="129" type="line"/>
      <point x="71" y="129" type="line"/>
      <point x="71" y="171" type="line"/>
    </contour>
    <contour>
      <point x="-29" y="129" type="line"/>
      <point x="-29" y="71" type="line"/>
      <point x="-71" y="71" type="line"/>
      <point x="-71" y="171" type="line"/>
      <point x="29" y="171" type="line"/>
      <point x="29" y="129" type="line"/>
    </contour>
    <contour>
      <point x="29" y="-29" type="line"/>
      <point x="29" y="-71" type="line"/>
      <point x="-71" y="-71" type="line"/>
      <point x="-71" y="29" type="line"/>
      <point x="-29" y="29" type="line"/>
      <point x="-29" y="-29" type="line"/>
    </contour>
    <contour>
      <point x="171" y="29" type="line"/>
      <point x="171" y="-71" type="line"/>
      <point x="71" y="-71" type="line"/>
      <point x="71" y="-29" type="line"/>
      <point x="129" y="-29" type="line"/>
      <point x="129" y="29" type="line"/>
    </contour>
  </outline>
</glyph>
<glyph name="NOTInstance@Black_Open_Square" format="1">
  <advance width="100"/>
  <outline>
    <contour>
      <point x="150" y="150" type="line"/>
      <point x="150" y="75" type="line"/>
      <point x="75" y="75" type="line"/>
      <point x="75" y="150" type="line"/>
    </contour>
    <contour>
      <point x="25" y="150" type="line"/>
      <point x="25" y="75" type="line"/>
      <point x="-50" y="75" type="line"/>
      <point x="-50" y="150" type="line"/>
    </contour>
    <contour>
      <point x="25" y="25" type="line"/>
      <point x="25" y="-50" type="line"/>
      <point x="-50" y="-50" type="line"/>
      <point x="-50" y="25" type="line"/>
    </contour>
    <contour>
      <point x="150" y="25" type="line"/>
      <point x="150" y="-50" type="line"/>
      <point x="75" y="-50" type="line"/>
      <point x="75" y="25" type="line"/>
    </contour>
  </outline>
</glyph>
<glyph name="NOTInstance@Black_Plus" format="1">
  <advance width="100"/>
  <outline>
    <contour>
      <point x="103" y="-3" type="line"/>
      <point x="103" y="-50" type="line"/>
      <point x="-3" y="-50" type="line"/>
      <point x="-3" y="-3" type="line"/>
      <point x="-50" y="-3" type="line"/>
      <point x="-50" y="103" type="line"/>
      <point x="-3" y="103" type="line"/>
      <point x="-3" y="150" type="line"/>
      <point x="103" y="150" type="line"/>
      <point x="103" y="103" type="line"/>
      <point x="150" y="103" type="line"/>
      <point x="150" y="-3" type="line"/>
    </contour>
  </outline>
</glyph>
<glyph name="NOTInstance@Black_Square" format="1">
  <advance width="100"/>
  <outline>
    <contour>
      <point x="150" y="150" type="line"/>
      <point x="150" y="-50" type="line"/>
      <point x="-50" y="-50" type="line"/>
      <point x="-50" y="150" type="line"/>
    </contour>
  </outline>
</glyph>
<glyph name="NOTInstanceItalic@Black_Circle" format="1">
  <advance width="100"/>
  <outline>
    <contour>
      <point x="50" y="150" type="curve"/>
      <point x="106" y="150"/>
      <point x="150" y="106"/>
      <point x="150" y="50" type="curve"/>
      <point x="150" y="-6"/>
      <point x="106" y="-50"/>
      <point x="50" y="-50" type="curve"/>
      <point x="-6" y="-50"/>
      <point x="-50" y="-6"/>
      <point x="-50" y="50" type="curve"/>
      <point x="-50" y="106"/>
      <point x="-6" y="150"/>
    </contour>
  </outline>
</glyph>
<glyph name="NOTInstanceItalic@Black_Line_Square" format="1">
  <advance width="100"/>
  <outline>
    <contour>
      <point x="-58" y="-45" type="line"/>
      <point x="-32" y="145" type="line"/>
      <point x="158" y="145" type="line"/>
      <point x="132" y="-45" type="line"/>
    </contour>
    <contour>
      <point x="2" y="106" type="line"/>
      <point x="-14" y="-6" type="line"/>
      <point x="98" y="-6" type="line"/>
      <point x="114" y="106" type="line"/>
    </contour>
  </outline>
</glyph>
<glyph name="NOTInstanceItalic@Black_Open_Circle" format="1">
  <advance width="100"/>
  <outline>
    <contour>
      <point x="89" y="150" type="line"/>
      <point x="132" y="150"/>
      <point x="159" y="118"/>
      <point x="154" y="75" type="curve"/>
      <point x="79" y="75" type="line"/>
    </contour>
    <contour>
      <point x="39" y="150" type="curve"/>
      <point x="29" y="75" type="line"/>
      <point x="-47" y="75" type="line"/>
      <point x="-40" y="118"/>
      <point x="-3" y="150"/>
    </contour>
    <contour>
      <point x="22" y="25" type="line"/>
      <point x="11" y="-50" type="line"/>
      <point x="-32" y="-50"/>
      <point x="-59" y="-18"/>
      <point x="-54" y="25" type="curve"/>
    </contour>
    <contour>
      <point x="147" y="25" type="line"/>
      <point x="140" y="-18"/>
      <point x="104" y="-50"/>
      <point x="61" y="-50" type="curve"/>
      <point x="72" y="25" type="line"/>
    </contour>
  </outline>
</glyph>
<glyph name="NOTInstanceItalic@Black_Open_Line_Circle" format="1">
  <advance width="100"/>
  <outline>
    <contour>
      <point x="84" y="150" type="line"/>
      <point x="130" y="150"/>
      <point x="160" y="116"/>
      <point x="153" y="70" type="curve"/>
      <point x="120" y="70" type="line"/>
      <point x="123" y="97"/>
      <point x="106" y="117"/>
      <point x="79" y="117" type="curve"/>
    </contour>
    <contour>
      <point x="39" y="117" type="line"/>
      <point x="14" y="117"/>
      <point x="-10" y="97"/>
      <point x="-14" y="70" type="curve"/>
      <point x="-47" y="70" type="line"/>
      <point x="-40" y="116"/>
      <point x="-2" y="150"/>
      <point x="44" y="150" type="curve"/>
    </contour>
    <contour>
      <point x="21" y="-17" type="curve"/>
      <point x="16" y="-50" type="line"/>
      <point x="-30" y="-50"/>
      <point x="-60" y="-16"/>
      <point x="-53" y="30" type="curve"/>
      <point x="-20" y="30" type="line"/>
      <point x="-23" y="3"/>
      <point x="-6" y="-17"/>
    </contour>
    <contour>
      <point x="147" y="30" type="line"/>
      <point x="140" y="-16"/>
      <point x="102" y="-50"/>
      <point x="56" y="-50" type="curve"/>
      <point x="61" y="-17" type="line"/>
      <point x="86" y="-17"/>
      <point x="110" y="3"/>
      <point x="114" y="30" type="curve"/>
    </contour>
  </outline>
</glyph>
<glyph name="NOTInstanceItalic@Black_Open_Line_Square" format="1">
  <advance width="100"/>
  <outline>
    <contour>
      <point x="188" y="171" type="line"/>
      <point x="174" y="71" type="line"/>
      <point x="132" y="71" type="line"/>
      <point x="141" y="129" type="line"/>
      <point x="82" y="129" type="line"/>
      <point x="88" y="171" type="line"/>
    </contour>
    <contour>
      <point x="-18" y="129" type="line"/>
      <point x="-27" y="71" type="line"/>
      <point x="-68" y="71" type="line"/>
      <point x="-54" y="171" type="line"/>
      <point x="46" y="171" type="line"/>
      <point x="41" y="129" type="line"/>
    </contour>
    <contour>
      <point x="18" y="-29" type="line"/>
      <point x="12" y="-71" type="line"/>
      <point x="-88" y="-71" type="line"/>
      <point x="-74" y="29" type="line"/>
      <point x="-32" y="29" type="line"/>
      <point x="-41" y="-29" type="line"/>
    </contour>
    <contour>
      <point x="168" y="29" type="line"/>
      <point x="154" y="-71" type="line"/>
      <point x="54" y="-71" type="line"/>
      <point x="59" y="-29" type="line"/>
      <point x="118" y="-29" type="line"/>
      <point x="127" y="29" type="line"/>
    </contour>
  </outline>
</glyph>
<glyph name="NOTInstanceItalic@Black_Plus" format="1">
  <advance width="100"/>
  <outline>
    <contour>
      <point x="96" y="-3" type="line"/>
      <point x="89" y="-50" type="line"/>
      <point x="-17" y="-50" type="line"/>
      <point x="-10" y="-3" type="line"/>
      <point x="-57" y="-3" type="line"/>
      <point x="-43" y="103" type="line"/>
      <point x="4" y="103" type="line"/>
      <point x="11" y="150" type="line"/>
      <point x="117" y="150" type="line"/>
      <point x="110" y="103" type="line"/>
      <point x="157" y="103" type="line"/>
      <point x="143" y="-3" type="line"/>
    </contour>
  </outline>
</glyph>
<glyph name="NOTInstanceItalic@Black_Square" format="1">
  <advance width="100"/>
  <outline>
    <contour>
      <point x="164" y="150" type="line"/>
      <point x="136" y="-50" type="line"/>
      <point x="-64" y="-50" type="line"/>
      <point x="-36" y="150" type="line"/>
    </contour>
  </outline>
</glyph>
